<svg width="82" height="82" viewBox="0 0 82 82" fill="none" xmlns="http://www.w3.org/2000/svg">
<path d="M20.4918 30.9489L32.5082 27.9128L26.3669 44.9072L20.9849 31.5711L31.3625 28.8499L26.3631 42.9856L22.4072 32.2953L30.2714 29.7869L26.5225 40.7003L24.212 33.0188L29.0171 31.0877L26.5721 38.2074L25.3062 33.6398L27.7077 32.1809L26.8406 35.8179L26.2907 34.1052L20.4918 30.9489Z" stroke="white" stroke-width="1.70473" stroke-linecap="square" stroke-linejoin="bevel"/>
<path d="M33.8498 15.5501L23.5971 26.061L40.4776 23.3269L34.2887 16.3802L25.6168 24.9664L39.0558 22.8104L34.5644 17.626L28.0187 23.6633L37.2515 22.3466L34.3487 19.0806L30.585 22.5676L35.5572 22.2461L34.4599 20.0671L33.1508 21.2641L34.463 21.625L33.8498 15.5501Z" stroke="white" stroke-width="1.70473" stroke-linecap="square" stroke-linejoin="bevel"/>
<path d="M33.9044 15.3943L31.4508 18.1516L34.3512 20.2232L35.9841 16.9481L33.9044 15.3943Z" stroke="white" stroke-width="1.70473" stroke-linecap="square" stroke-linejoin="bevel"/>
<path d="M38.6594 15.7483L49.8859 27.7225L54.0743 17.9507L38.2739 14.2949L40.0274 16.6804L49.3903 25.8539L53.1463 18.4719L40.3527 15.3814L48.8958 24.5046L52.1638 19.0451L42.1583 16.5203L48.4562 23.2591L50.5801 19.5676L44.1825 17.6588L48.017 22.2732L49.5426 19.9851L46.1524 18.9532L47.6325 21.2872L48.3959 20.4548L47.3017 19.7819L38.6594 15.7483Z" stroke="white" stroke-width="1.70473" stroke-linecap="square" stroke-linejoin="bevel"/>
<path d="M48.8728 47.4071L49.4317 46.7828" stroke="white" stroke-width="1.70473" stroke-linecap="square" stroke-linejoin="bevel"/>
<path d="M20.7727 62H19.3636C19.2803 61.5947 19.1345 61.2386 18.9261 60.9318C18.7216 60.625 18.4716 60.3674 18.1761 60.1591C17.8845 59.947 17.5606 59.7879 17.2045 59.6818C16.8485 59.5758 16.4773 59.5227 16.0909 59.5227C15.3864 59.5227 14.7481 59.7008 14.1761 60.0568C13.608 60.4129 13.1553 60.9375 12.8182 61.6307C12.4848 62.3239 12.3182 63.1742 12.3182 64.1818C12.3182 65.1894 12.4848 66.0398 12.8182 66.733C13.1553 67.4261 13.608 67.9508 14.1761 68.3068C14.7481 68.6629 15.3864 68.8409 16.0909 68.8409C16.4773 68.8409 16.8485 68.7879 17.2045 68.6818C17.5606 68.5758 17.8845 68.4186 18.1761 68.2102C18.4716 67.9981 18.7216 67.7386 18.9261 67.4318C19.1345 67.1212 19.2803 66.7652 19.3636 66.3636H20.7727C20.6667 66.9583 20.4735 67.4905 20.1932 67.9602C19.9129 68.4299 19.5644 68.8295 19.1477 69.1591C18.7311 69.4848 18.2633 69.733 17.7443 69.9034C17.2292 70.0739 16.678 70.1591 16.0909 70.1591C15.0985 70.1591 14.2159 69.9167 13.4432 69.4318C12.6705 68.947 12.0625 68.2576 11.6193 67.3636C11.1761 66.4697 10.9545 65.4091 10.9545 64.1818C10.9545 62.9545 11.1761 61.8939 11.6193 61C12.0625 60.1061 12.6705 59.4167 13.4432 58.9318C14.2159 58.447 15.0985 58.2045 16.0909 58.2045C16.678 58.2045 17.2292 58.2898 17.7443 58.4602C18.2633 58.6307 18.7311 58.8807 19.1477 59.2102C19.5644 59.536 19.9129 59.9337 20.1932 60.4034C20.4735 60.8693 20.6667 61.4015 20.7727 62ZM25.4361 70.2045C24.883 70.2045 24.3812 70.1004 23.9304 69.892C23.4796 69.6799 23.1217 69.375 22.8565 68.9773C22.5914 68.5758 22.4588 68.0909 22.4588 67.5227C22.4588 67.0227 22.5573 66.6174 22.7543 66.3068C22.9512 65.9924 23.2145 65.7462 23.544 65.5682C23.8736 65.3902 24.2372 65.2576 24.6349 65.1705C25.0365 65.0795 25.4399 65.0076 25.8452 64.9545C26.3755 64.8864 26.8054 64.8352 27.1349 64.8011C27.4683 64.7633 27.7107 64.7008 27.8622 64.6136C28.0175 64.5265 28.0952 64.375 28.0952 64.1591V64.1136C28.0952 63.553 27.9418 63.1174 27.6349 62.8068C27.3319 62.4962 26.8717 62.3409 26.2543 62.3409C25.6141 62.3409 25.1122 62.4811 24.7486 62.7614C24.3849 63.0417 24.1293 63.3409 23.9815 63.6591L22.7088 63.2045C22.9361 62.6742 23.2391 62.2614 23.6179 61.9659C24.0005 61.6667 24.4171 61.4583 24.8679 61.3409C25.3224 61.2197 25.7694 61.1591 26.2088 61.1591C26.4891 61.1591 26.8111 61.1932 27.1747 61.2614C27.5421 61.3258 27.8963 61.4602 28.2372 61.6648C28.5819 61.8693 28.8679 62.178 29.0952 62.5909C29.3224 63.0038 29.4361 63.5568 29.4361 64.25V70H28.0952V68.8182H28.027C27.9361 69.0076 27.7846 69.2102 27.5724 69.4261C27.3603 69.642 27.0781 69.8258 26.7259 69.9773C26.3736 70.1288 25.9437 70.2045 25.4361 70.2045ZM25.6406 69C26.1709 69 26.6179 68.8958 26.9815 68.6875C27.349 68.4792 27.6255 68.2102 27.8111 67.8807C28.0005 67.5511 28.0952 67.2045 28.0952 66.8409V65.6136C28.0384 65.6818 27.9134 65.7443 27.7202 65.8011C27.5308 65.8542 27.3111 65.9015 27.0611 65.9432C26.8149 65.9811 26.5743 66.0152 26.3395 66.0455C26.1084 66.072 25.9209 66.0947 25.777 66.1136C25.4285 66.1591 25.1027 66.233 24.7997 66.3352C24.5005 66.4337 24.258 66.5833 24.0724 66.7841C23.8906 66.9811 23.7997 67.25 23.7997 67.5909C23.7997 68.0568 23.9721 68.4091 24.3168 68.6477C24.6652 68.8826 25.1065 69 25.6406 69ZM31.8835 70V61.2727H33.179V62.6364H33.2926C33.4744 62.1705 33.768 61.8087 34.1733 61.5511C34.5786 61.2898 35.0653 61.1591 35.6335 61.1591C36.2093 61.1591 36.6884 61.2898 37.071 61.5511C37.4574 61.8087 37.7585 62.1705 37.9744 62.6364H38.0653C38.2888 62.1856 38.6241 61.8277 39.071 61.5625C39.518 61.2936 40.054 61.1591 40.679 61.1591C41.4593 61.1591 42.0975 61.4034 42.5938 61.892C43.09 62.3769 43.3381 63.1326 43.3381 64.1591V70H41.9972V64.1591C41.9972 63.5152 41.821 63.0549 41.4688 62.7784C41.1165 62.5019 40.7017 62.3636 40.2244 62.3636C39.6108 62.3636 39.1354 62.5492 38.7983 62.9205C38.4612 63.2879 38.2926 63.7538 38.2926 64.3182V70H36.929V64.0227C36.929 63.5265 36.768 63.1269 36.446 62.8239C36.1241 62.517 35.7093 62.3636 35.2017 62.3636C34.8532 62.3636 34.5275 62.4564 34.2244 62.642C33.9252 62.8277 33.6828 63.0852 33.4972 63.4148C33.3153 63.7405 33.2244 64.1174 33.2244 64.5455V70H31.8835ZM45.7898 70V61.2727H47.0852V62.5909H47.1761C47.3352 62.1591 47.6231 61.8087 48.0398 61.5398C48.4564 61.2708 48.9261 61.1364 49.4489 61.1364C49.5473 61.1364 49.6705 61.1383 49.8182 61.142C49.9659 61.1458 50.0777 61.1515 50.1534 61.1591V62.5227C50.108 62.5114 50.0038 62.4943 49.8409 62.4716C49.6818 62.4451 49.5133 62.4318 49.3352 62.4318C48.911 62.4318 48.5322 62.5208 48.1989 62.6989C47.8693 62.8731 47.608 63.1155 47.4148 63.4261C47.2254 63.733 47.1307 64.0833 47.1307 64.4773V70H45.7898ZM55.1364 70.1818C54.2955 70.1818 53.5701 69.9962 52.9602 69.625C52.3542 69.25 51.8864 68.7273 51.5568 68.0568C51.2311 67.3826 51.0682 66.5985 51.0682 65.7045C51.0682 64.8106 51.2311 64.0227 51.5568 63.3409C51.8864 62.6553 52.3447 62.1212 52.9318 61.7386C53.5227 61.3523 54.2121 61.1591 55 61.1591C55.4545 61.1591 55.9034 61.2348 56.3466 61.3864C56.7898 61.5379 57.1932 61.7841 57.5568 62.125C57.9205 62.4621 58.2102 62.9091 58.4261 63.4659C58.642 64.0227 58.75 64.7083 58.75 65.5227V66.0909H52.0227V64.9318H57.3864C57.3864 64.4394 57.2879 64 57.0909 63.6136C56.8977 63.2273 56.6212 62.9223 56.2614 62.6989C55.9053 62.4754 55.4848 62.3636 55 62.3636C54.4659 62.3636 54.0038 62.4962 53.6136 62.7614C53.2273 63.0227 52.9299 63.3636 52.7216 63.7841C52.5133 64.2045 52.4091 64.6553 52.4091 65.1364V65.9091C52.4091 66.5682 52.5227 67.1269 52.75 67.5852C52.9811 68.0398 53.3011 68.3864 53.7102 68.625C54.1193 68.8598 54.5947 68.9773 55.1364 68.9773C55.4886 68.9773 55.8068 68.928 56.0909 68.8295C56.3788 68.7273 56.6269 68.5758 56.8352 68.375C57.0436 68.1705 57.2045 67.9167 57.3182 67.6136L58.6136 67.9773C58.4773 68.4167 58.2481 68.803 57.9261 69.1364C57.6042 69.4659 57.2064 69.7235 56.733 69.9091C56.2595 70.0909 55.7273 70.1818 55.1364 70.1818ZM62.1307 64.75V70H60.7898V61.2727H62.0852V62.6364H62.1989C62.4034 62.1932 62.714 61.8371 63.1307 61.5682C63.5473 61.2955 64.0852 61.1591 64.7443 61.1591C65.3352 61.1591 65.8523 61.2803 66.2955 61.5227C66.7386 61.7614 67.0833 62.125 67.3295 62.6136C67.5758 63.0985 67.6989 63.7121 67.6989 64.4545V70H66.358V64.5455C66.358 63.8598 66.1799 63.3258 65.8239 62.9432C65.4678 62.5568 64.9792 62.3636 64.358 62.3636C63.9299 62.3636 63.5473 62.4564 63.2102 62.642C62.8769 62.8277 62.6136 63.0985 62.4205 63.4545C62.2273 63.8106 62.1307 64.2424 62.1307 64.75ZM73.9446 61.2727V62.4091H69.4219V61.2727H73.9446ZM70.7401 59.1818H72.081V67.5C72.081 67.8788 72.1359 68.1629 72.2457 68.3523C72.3594 68.5379 72.5033 68.6629 72.6776 68.7273C72.8556 68.7879 73.0431 68.8182 73.2401 68.8182C73.3878 68.8182 73.509 68.8106 73.6037 68.7955C73.6984 68.7765 73.7741 68.7614 73.831 68.75L74.1037 69.9545C74.0128 69.9886 73.8859 70.0227 73.723 70.0568C73.5601 70.0947 73.3537 70.1136 73.1037 70.1136C72.7249 70.1136 72.3537 70.0322 71.9901 69.8693C71.6302 69.7064 71.331 69.4583 71.0923 69.125C70.8575 68.7917 70.7401 68.3712 70.7401 67.8636V59.1818Z" fill="black"/>
<path d="M20.5 30.5L32.5 27.5L26.5 45.5L20.5 30.5Z" fill="#5A6680" stroke="#5A6680"/>
<path d="M34 14.5L41.5 23.5L22.5 27L34 14.5Z" fill="#2C4450"/>
<path d="M33.129 38L29 49.76L45 52L33.129 38Z" fill="#0F282D" stroke="#0F282D"/>
<path d="M41.9538 23.5836L34.1212 14.5109L21.7417 27.3111L41.9538 23.5836Z" stroke="#2C4450" stroke-width="1.70473" stroke-linecap="square" stroke-linejoin="bevel"/>
<path d="M37 13.5L54.5 17.5L50.5 28L37 13.5Z" fill="#0F282D" stroke="#0F282D"/>
<path d="M62 39L41.5526 42.36H41L49.8421 51L62 39Z" fill="#2C4450"/>
<path d="M50.3796 28.8121L54.674 17.3783L36.4136 13.26L50.3796 28.8121Z" stroke="#0F282D" stroke-width="1.70473" stroke-linecap="square" stroke-linejoin="bevel"/>
<path d="M62.5 35.5L51 37.5L56.5 20.5L62.5 35.5Z" fill="#5A6680" stroke="#5A6680"/>
<path d="M49.9886 51.975L41.1712 42.333L62.7492 38.447L49.9886 51.975Z" stroke="#2C4450" stroke-width="1.70473" stroke-linecap="square" stroke-linejoin="bevel"/>
<path d="M50.2888 38.0563L56.5905 19.296L62.9627 35.9019L50.2888 38.0563Z" stroke="#5A6680" stroke-width="1.70473" stroke-linecap="square" stroke-linejoin="bevel"/>
<path d="M33.3273 27.4957L20.2728 30.6377L26.1523 46.8291L33.3273 27.4957Z" stroke="#5A6680" stroke-width="1.70473" stroke-linecap="square" stroke-linejoin="bevel"/>
<path d="M28.1261 50.1489L32.9095 37.312L46.6018 52.6049L28.1261 50.1489Z" stroke="#0F282D" stroke-width="1.70473" stroke-linecap="square" stroke-linejoin="bevel"/>
</svg>
